<?xml version="1.0" encoding="UTF-8" standalone="no"?><!-- Generator: Gravit.io --><svg xmlns="http://www.w3.org/2000/svg" xmlns:xlink="http://www.w3.org/1999/xlink" style="isolation:isolate" viewBox="0 0 172.878 69.921" width="172.878pt" height="69.921pt"><defs><clipPath id="_clipPath_Xd2CSKnW6ZVPNOdwksrTL79QUbotCqiR"><rect width="172.878" height="69.921"/></clipPath></defs><g clip-path="url(#_clipPath_Xd2CSKnW6ZVPNOdwksrTL79QUbotCqiR)"><g clip-path="url(#_clipPath_nOtF1crpaFxa6oQLi6vfjE2EQhcoj5Yt)"><text transform="matrix(1,0,0,1,49,24.555)" style="font-family:'Fredoka One';font-weight:400;font-size:14px;font-style:normal;fill:#5d78ff;stroke:none;">La communication</text></g><defs><clipPath id="_clipPath_nOtF1crpaFxa6oQLi6vfjE2EQhcoj5Yt"><rect x="0" y="0" width="128.756" height="16.94" transform="matrix(1,0,0,1,49,10.919)"/></clipPath></defs><g clip-path="url(#_clipPath_zqRBokZrB9RgCChS1V2C766wEunoe1f5)"><text transform="matrix(1,0,0,1,59.561,51.235)" style="font-family:'Fredoka One';font-weight:400;font-size:24px;font-style:normal;fill:#282f49;stroke:none;">Digitale</text></g><defs><clipPath id="_clipPath_zqRBokZrB9RgCChS1V2C766wEunoe1f5"><rect x="0" y="0" width="97.878" height="42.103" transform="matrix(1,0,0,1,59.561,27.859)"/></clipPath></defs><g clip-path="url(#_clipPath_WJVp2sM0syvRsSS0ompQjxxfEFdh5t1k)"><text transform="matrix(1,0.005,-0.005,1,4.074,46.751)" style="font-family:'Fredoka One';font-weight:400;font-size:48px;font-style:normal;fill:#5d78ff;stroke:none;">L</text></g><defs><clipPath id="_clipPath_WJVp2sM0syvRsSS0ompQjxxfEFdh5t1k"><rect x="0" y="0" width="39.478" height="60.876" transform="matrix(1,0.005,-0.005,1,4.317,0)"/></clipPath></defs><g clip-path="url(#_clipPath_4GdgHPdMNGjMJzr7TNVGthpiFBfPR8Tl)"><text transform="matrix(-1,-0.005,-0.005,1,48.757,60.568)" style="font-family:'Fredoka One';font-weight:400;font-size:48px;font-style:normal;fill:#282f49;stroke:none;">C</text></g><defs><clipPath id="_clipPath_4GdgHPdMNGjMJzr7TNVGthpiFBfPR8Tl"><rect x="0" y="0" width="41.54" height="50.96" transform="matrix(-1,-0.005,-0.005,1,49,13.817)"/></clipPath></defs></g></svg>